<?xml version="1.0" encoding="utf-8"?>
<!-- Generator: Adobe Illustrator 22.1.0, SVG Export Plug-In . SVG Version: 6.00 Build 0)  -->
<svg version="1.1" id="Camada_1" xmlns="http://www.w3.org/2000/svg" xmlns:xlink="http://www.w3.org/1999/xlink" x="0px" y="0px"
	 viewBox="0 0 102.7 102.7" style="enable-background:new 0 0 102.7 102.7;" xml:space="preserve">
<style type="text/css">
	.st0{fill:#FFFFFF;}
	.st1{fill:#1A1A1A;}
	.st2{fill:none;stroke:#00FFF2;stroke-width:3;stroke-miterlimit:10;}
	.st3{fill:#ED407C;}
</style>
<g>
	<g>
		<g>
			<g>
				<path class="st0" d="M-66.4,52"/>
			</g>
		</g>
		<g>
			<path class="st0" d="M-66.4,52"/>
		</g>
		<g>
			<polygon class="st0" points="-103.7,80.7 -103.7,80.7 -103.7,17.1 -109.6,17.1 -109.6,86.5 -103.7,86.5 			"/>
			<path class="st0" d="M-47.1,30.2c-7.3-7.6-20.6-13.1-43.8-13.1h-2.9v50.8l45.4-29.7c2.4,3.8,3.5,8.4,3.5,13.7
				c0,19.1-15.5,28.8-46,28.8h-2.9h-0.4v5.9h0.4h2.9h2.9v0c40.4-0.9,49-19.2,49-34.7c0-5.6-1.1-11.6-4.5-17l14.3-9.4v61.1h5.9v-72
				L-47.1,30.2z M-87.9,57V23c16.9,0.4,28.8,3.9,35.8,10.5L-87.9,57z"/>
		</g>
	</g>
</g>
<g>
	<g>
		<g>
			<g>
				<path d="M-181.9,52"/>
			</g>
		</g>
		<g>
			<path d="M-181.9,52"/>
		</g>
		<g>
			<polygon points="-219.2,80.7 -219.2,80.7 -219.2,17.1 -225.1,17.1 -225.1,86.5 -219.2,86.5 			"/>
			<path d="M-162.6,30.2c-7.3-7.6-20.6-13.1-43.8-13.1h-2.9v50.8l45.4-29.7c2.4,3.8,3.5,8.4,3.5,13.7c0,19.1-15.5,28.8-46,28.8h-2.9
				h-0.4v5.9h0.4h2.9h2.9v0c40.4-0.9,49-19.2,49-34.7c0-5.6-1.1-11.6-4.5-17l14.3-9.4v61.1h5.9v-72L-162.6,30.2z M-203.4,57V23
				c16.9,0.4,28.8,3.9,35.8,10.5L-203.4,57z"/>
		</g>
	</g>
</g>
<g>
	<g>
		<g>
			<g>
				<rect y="0" class="st1" width="102.7" height="102.7"/>
			</g>
		</g>
		<g>
			<g>
				<path class="st2" d="M51.4,51.4"/>
			</g>
		</g>
		<g>
			<path class="st2" d="M51.4,51.4"/>
		</g>
		<g>
			<polygon class="st3" points="16.7,78.6 16.7,78.6 16.7,19.4 11.2,19.4 11.2,84 16.7,84 			"/>
			<path class="st3" d="M69.4,31.6c-6.8-7.1-19.2-12.2-40.8-12.2h-2.7v47.2L68.1,39c2.2,3.6,3.3,7.8,3.3,12.7
				c0,17.8-14.4,26.8-42.8,26.8h-2.7h-0.4V84h0.4h2.7h2.7v0c37.5-0.8,45.6-17.9,45.6-32.3c0-5.2-1-10.8-4.1-15.8l13.3-8.7V84h5.5
				v-67L69.4,31.6z M31.3,56.5V24.9c15.7,0.3,26.8,3.6,33.3,9.8L31.3,56.5z"/>
		</g>
	</g>
</g>
</svg>
